<?xml version="1.0" encoding="UTF-8" standalone="no"?>
<!-- Created with Inkscape (http://www.inkscape.org/) -->

<svg
   xmlns:dc="http://purl.org/dc/elements/1.1/"
   xmlns:cc="http://creativecommons.org/ns#"
   xmlns:rdf="http://www.w3.org/1999/02/22-rdf-syntax-ns#"
   xmlns:svg="http://www.w3.org/2000/svg"
   xmlns="http://www.w3.org/2000/svg"
   xmlns:sodipodi="http://sodipodi.sourceforge.net/DTD/sodipodi-0.dtd"
   xmlns:inkscape="http://www.inkscape.org/namespaces/inkscape"
   width="100"
   height="100"
   viewBox="0 0 100 100"
   id="svg2"
   version="1.1"
   inkscape:version="0.91 r13725"
   inkscape:export-filename="/home/abhishta/Documents/PyScript/spotLit/static/img/logo.png"
   inkscape:export-xdpi="90"
   inkscape:export-ydpi="90"
   sodipodi:docname="logo.svg">
  <defs
     id="defs4" />
  <sodipodi:namedview
     id="base"
     pagecolor="#ffffff"
     bordercolor="#666666"
     borderopacity="1.0"
     inkscape:pageopacity="0.0"
     inkscape:pageshadow="2"
     inkscape:zoom="3.5779603"
     inkscape:cx="29.145212"
     inkscape:cy="59.162528"
     inkscape:document-units="px"
     inkscape:current-layer="layer1"
     showgrid="false"
     units="px"
     inkscape:object-nodes="true"
     inkscape:window-width="1366"
     inkscape:window-height="705"
     inkscape:window-x="0"
     inkscape:window-y="30"
     inkscape:window-maximized="1" />
  <metadata
     id="metadata7">
    <rdf:RDF>
      <cc:Work
         rdf:about="">
        <dc:format>image/svg+xml</dc:format>
        <dc:type
           rdf:resource="http://purl.org/dc/dcmitype/StillImage" />
        <dc:title></dc:title>
      </cc:Work>
    </rdf:RDF>
  </metadata>
  <g
     inkscape:label="Layer 1"
     inkscape:groupmode="layer"
     id="layer1"
     transform="translate(0,-952.36216)">
    <path
       style="opacity:1;fill:#03a9f4;fill-opacity:1;fill-rule:nonzero;stroke:none;stroke-width:3.29999995;stroke-linecap:round;stroke-linejoin:round;stroke-miterlimit:4;stroke-dasharray:none;stroke-dashoffset:0;stroke-opacity:1"
       d="M 50 0 A 50 50 0 0 0 0 50 A 50 50 0 0 0 50 100 A 50 50 0 0 0 100 50 A 50 50 0 0 0 50 0 z M 50 37.5 A 12.5 12.5 0 0 1 62.5 50 A 12.5 12.5 0 0 1 50 62.5 A 12.5 12.5 0 0 1 37.5 50 A 12.5 12.5 0 0 1 50 37.5 z "
       transform="translate(0,952.36216)"
       id="path4136" />
    <path
       style="opacity:1;fill:#039be5;fill-opacity:1;fill-rule:nonzero;stroke:none;stroke-width:3.29999995;stroke-linecap:round;stroke-linejoin:round;stroke-miterlimit:4;stroke-dasharray:none;stroke-dashoffset:0;stroke-opacity:1"
       d="M 50 12.5 A 37.5 37.5 0 0 0 12.5 50 A 37.5 37.5 0 0 0 50 87.5 A 37.5 37.5 0 0 0 87.5 50 A 37.5 37.5 0 0 0 50 12.5 z M 50 37.5 A 12.5 12.5 0 0 1 62.5 50 A 12.5 12.5 0 0 1 50 62.5 A 12.5 12.5 0 0 1 37.5 50 A 12.5 12.5 0 0 1 50 37.5 z "
       transform="translate(0,952.36216)"
       id="circle4142" />
    <path
       style="opacity:1;fill:#0288d1;fill-opacity:1;fill-rule:nonzero;"
       d="M 50 25 A 25 25 0 0 0 25 50 A 25 25 0 0 0 50 75 A 25 25 0 0 0 75 50 A 25 25 0 0 0 50 25 z M 50 37.5 A 12.5 12.5 0 0 1 62.5 50 A 12.5 12.5 0 0 1 50 62.5 A 12.5 12.5 0 0 1 37.5 50 A 12.5 12.5 0 0 1 50 37.5 z "
       transform="translate(0,952.36216)"
       id="circle4144" />
    <path
       style="opacity:1;fill:#030000;fill-opacity:0.03921569;fill-rule:nonzero;stroke:none;stroke-width:3.29999995;stroke-linecap:round;stroke-linejoin:round;stroke-miterlimit:4;stroke-dasharray:none;stroke-dashoffset:0;stroke-opacity:1"
       d="M 62.5 50 A 12.5 12.5 0 0 1 50 62.5 L 50 100 A 50 50 0 0 0 100 50 L 62.5 50 z "
       transform="translate(0,952.36216)"
       id="circle4156" />
    <path
       style="opacity:1;fill:#030000;fill-opacity:0.03921569;fill-rule:nonzero;stroke:none;stroke-width:3.29999995;stroke-linecap:round;stroke-linejoin:round;stroke-miterlimit:4;stroke-dasharray:none;stroke-dashoffset:0;stroke-opacity:1"
       d="M 50 0 A 50 50 0 0 0 0 50 L 37.5 50 A 12.5 12.5 0 0 1 50 37.5 L 50 0 z "
       transform="translate(0,952.36216)"
       id="path4159" />
  </g>
</svg>
